{
  "asset": {
    "version": "2.0",
    "generator": "THREE.GLTFExporter r179"
  },
  "scenes": [
    {
      "nodes": [
        0
      ]
    }
  ],
  "scene": 0,
  "nodes": [
    {
      "name": "AvatarRoot",
      "children": [
        1,
        2,
        3,
        4,
        5,
        6
      ]
    },
    {
      "translation": [
        0,
        2.05,
        0
      ],
      "name": "Torso",
      "mesh": 0
    },
    {
      "translation": [
        0,
        3.42,
        0
      ],
      "name": "Head",
      "mesh": 1
    },
    {
      "translation": [
        -0.74,
        2.32,
        0
      ],
      "name": "LeftArm",
      "mesh": 2
    },
    {
      "translation": [
        0.74,
        2.32,
        0
      ],
      "name": "RightArm",
      "mesh": 2
    },
    {
      "translation": [
        -0.24,
        0.98,
        0
      ],
      "name": "LeftLeg",
      "mesh": 3
    },
    {
      "translation": [
        0.24,
        0.98,
        0
      ],
      "name": "RightLeg",
      "mesh": 3
    }
  ],
  "bufferViews": [
    {
      "buffer": 0,
      "byteOffset": 0,
      "byteLength": 2184,
      "target": 34962,
      "byteStride": 12
    },
    {
      "buffer": 0,
      "byteOffset": 2184,
      "byteLength": 2184,
      "target": 34962,
      "byteStride": 12
    },
    {
      "buffer": 0,
      "byteOffset": 4368,
      "byteLength": 1456,
      "target": 34962,
      "byteStride": 8
    },
    {
      "buffer": 0,
      "byteOffset": 5824,
      "byteLength": 1872,
      "target": 34963
    },
    {
      "buffer": 0,
      "byteOffset": 7696,
      "byteLength": 4332,
      "target": 34962,
      "byteStride": 12
    },
    {
      "buffer": 0,
      "byteOffset": 12028,
      "byteLength": 4332,
      "target": 34962,
      "byteStride": 12
    },
    {
      "buffer": 0,
      "byteOffset": 16360,
      "byteLength": 2888,
      "target": 34962,
      "byteStride": 8
    },
    {
      "buffer": 0,
      "byteOffset": 19248,
      "byteLength": 3672,
      "target": 34963
    },
    {
      "buffer": 0,
      "byteOffset": 22920,
      "byteLength": 1320,
      "target": 34962,
      "byteStride": 12
    },
    {
      "buffer": 0,
      "byteOffset": 24240,
      "byteLength": 1320,
      "target": 34962,
      "byteStride": 12
    },
    {
      "buffer": 0,
      "byteOffset": 25560,
      "byteLength": 880,
      "target": 34962,
      "byteStride": 8
    },
    {
      "buffer": 0,
      "byteOffset": 26440,
      "byteLength": 1080,
      "target": 34963
    },
    {
      "buffer": 0,
      "byteOffset": 27520,
      "byteLength": 1320,
      "target": 34962,
      "byteStride": 12
    },
    {
      "buffer": 0,
      "byteOffset": 28840,
      "byteLength": 1320,
      "target": 34962,
      "byteStride": 12
    },
    {
      "buffer": 0,
      "byteOffset": 30160,
      "byteLength": 880,
      "target": 34962,
      "byteStride": 8
    },
    {
      "buffer": 0,
      "byteOffset": 31040,
      "byteLength": 1080,
      "target": 34963
    },
    {
      "buffer": 0,
      "byteOffset": 32120,
      "byteLength": 12
    },
    {
      "buffer": 0,
      "byteOffset": 32132,
      "byteLength": 12
    },
    {
      "buffer": 0,
      "byteOffset": 32144,
      "byteLength": 12
    },
    {
      "buffer": 0,
      "byteOffset": 32156,
      "byteLength": 48
    },
    {
      "buffer": 0,
      "byteOffset": 32204,
      "byteLength": 12
    },
    {
      "buffer": 0,
      "byteOffset": 32216,
      "byteLength": 48
    },
    {
      "buffer": 0,
      "byteOffset": 32264,
      "byteLength": 12
    },
    {
      "buffer": 0,
      "byteOffset": 32276,
      "byteLength": 12
    },
    {
      "buffer": 0,
      "byteOffset": 32288,
      "byteLength": 12
    },
    {
      "buffer": 0,
      "byteOffset": 32300,
      "byteLength": 48
    },
    {
      "buffer": 0,
      "byteOffset": 32348,
      "byteLength": 12
    },
    {
      "buffer": 0,
      "byteOffset": 32360,
      "byteLength": 48
    },
    {
      "buffer": 0,
      "byteOffset": 32408,
      "byteLength": 12
    },
    {
      "buffer": 0,
      "byteOffset": 32420,
      "byteLength": 48
    },
    {
      "buffer": 0,
      "byteOffset": 32468,
      "byteLength": 12
    },
    {
      "buffer": 0,
      "byteOffset": 32480,
      "byteLength": 48
    }
  ],
  "buffers": [
    {
      "byteLength": 32528,
      "uri": "data:application/octet-stream;base64,"
    }
  ],
  "accessors": [
    {
      "bufferView": 0,
      "componentType": 5126,
      "count": 182,
      "max": [
        0.47999998927116394,
        1.090000033378601,
        0.47999998927116394
      ],
      "min": [
        -0.47999998927116394,
        -1.090000033378601,
        -0.47999998927116394
      ],
      "type": "VEC3"
    },
    {
      "bufferView": 1,
      "componentType": 5126,
      "count": 182,
      "max": [
        1,
        1,
        1
      ],
      "min": [
        -1,
        -1,
        -1
      ],
      "type": "VEC3"
    },
    {
      "bufferView": 2,
      "componentType": 5126,
      "count": 182,
      "max": [
        1.0416666269302368,
        1
      ],
      "min": [
        -0.0416666679084301,
        0
      ],
      "type": "VEC2"
    },
    {
      "bufferView": 3,
      "componentType": 5123,
      "count": 936,
      "max": [
        181
      ],
      "min": [
        0
      ],
      "type": "SCALAR"
    },
    {
      "bufferView": 4,
      "componentType": 5126,
      "count": 361,
      "max": [
        0.4000000059604645,
        0.4000000059604645,
        0.3939231038093567
      ],
      "min": [
        -0.4000000059604645,
        -0.4000000059604645,
        -0.3939231038093567
      ],
      "type": "VEC3"
    },
    {
      "bufferView": 5,
      "componentType": 5126,
      "count": 361,
      "max": [
        1,
        1,
        0.9848077297210693
      ],
      "min": [
        -1,
        -1,
        -0.9848077297210693
      ],
      "type": "VEC3"
    },
    {
      "bufferView": 6,
      "componentType": 5126,
      "count": 361,
      "max": [
        1.0277777910232544,
        1
      ],
      "min": [
        -0.02777777798473835,
        0
      ],
      "type": "VEC2"
    },
    {
      "bufferView": 7,
      "componentType": 5123,
      "count": 1836,
      "max": [
        360
      ],
      "min": [
        0
      ],
      "type": "SCALAR"
    },
    {
      "bufferView": 8,
      "componentType": 5126,
      "count": 110,
      "max": [
        0.11999999731779099,
        0.5799999833106995,
        0.1141267791390419
      ],
      "min": [
        -0.11999999731779099,
        -0.5799999833106995,
        -0.1141267791390419
      ],
      "type": "VEC3"
    },
    {
      "bufferView": 9,
      "componentType": 5126,
      "count": 110,
      "max": [
        1,
        1,
        0.9510565400123596
      ],
      "min": [
        -1,
        -1,
        -0.9510565400123596
      ],
      "type": "VEC3"
    },
    {
      "bufferView": 10,
      "componentType": 5126,
      "count": 110,
      "max": [
        1.0499999523162842,
        1
      ],
      "min": [
        -0.05000000074505806,
        0
      ],
      "type": "VEC2"
    },
    {
      "bufferView": 11,
      "componentType": 5123,
      "count": 540,
      "max": [
        109
      ],
      "min": [
        0
      ],
      "type": "SCALAR"
    },
    {
      "bufferView": 12,
      "componentType": 5126,
      "count": 110,
      "max": [
        0.14000000059604645,
        0.6200000047683716,
        0.13314791023731232
      ],
      "min": [
        -0.14000000059604645,
        -0.6200000047683716,
        -0.13314791023731232
      ],
      "type": "VEC3"
    },
    {
      "bufferView": 13,
      "componentType": 5126,
      "count": 110,
      "max": [
        1,
        1,
        0.9510565400123596
      ],
      "min": [
        -1,
        -1,
        -0.9510565400123596
      ],
      "type": "VEC3"
    },
    {
      "bufferView": 14,
      "componentType": 5126,
      "count": 110,
      "max": [
        1.0499999523162842,
        1
      ],
      "min": [
        -0.05000000074505806,
        0
      ],
      "type": "VEC2"
    },
    {
      "bufferView": 15,
      "componentType": 5123,
      "count": 540,
      "max": [
        109
      ],
      "min": [
        0
      ],
      "type": "SCALAR"
    },
    {
      "bufferView": 16,
      "componentType": 5126,
      "count": 3,
      "max": [
        1.600000023841858
      ],
      "min": [
        0
      ],
      "type": "SCALAR"
    },
    {
      "bufferView": 17,
      "componentType": 5126,
      "count": 3,
      "max": [
        0.05999999865889549
      ],
      "min": [
        0
      ],
      "type": "SCALAR"
    },
    {
      "bufferView": 18,
      "componentType": 5126,
      "count": 3,
      "max": [
        1.600000023841858
      ],
      "min": [
        0
      ],
      "type": "SCALAR"
    },
    {
      "bufferView": 19,
      "componentType": 5126,
      "count": 3,
      "max": [
        0,
        0,
        0.03998933359980583,
        0.9992001056671143
      ],
      "min": [
        0,
        0,
        -0.03998933359980583,
        0.9992001056671143
      ],
      "type": "VEC4"
    },
    {
      "bufferView": 20,
      "componentType": 5126,
      "count": 3,
      "max": [
        1.600000023841858
      ],
      "min": [
        0
      ],
      "type": "SCALAR"
    },
    {
      "bufferView": 21,
      "componentType": 5126,
      "count": 3,
      "max": [
        0,
        0,
        0.03998933359980583,
        0.9992001056671143
      ],
      "min": [
        0,
        0,
        -0.03998933359980583,
        0.9992001056671143
      ],
      "type": "VEC4"
    },
    {
      "bufferView": 22,
      "componentType": 5126,
      "count": 3,
      "max": [
        0.8999999761581421
      ],
      "min": [
        0
      ],
      "type": "SCALAR"
    },
    {
      "bufferView": 23,
      "componentType": 5126,
      "count": 3,
      "max": [
        0.11999999731779099
      ],
      "min": [
        0
      ],
      "type": "SCALAR"
    },
    {
      "bufferView": 24,
      "componentType": 5126,
      "count": 3,
      "max": [
        0.8999999761581421
      ],
      "min": [
        0
      ],
      "type": "SCALAR"
    },
    {
      "bufferView": 25,
      "componentType": 5126,
      "count": 3,
      "max": [
        0.34289780259132385,
        0,
        0,
        0.939372718334198
      ],
      "min": [
        -0.34289780259132385,
        0,
        0,
        0.939372718334198
      ],
      "type": "VEC4"
    },
    {
      "bufferView": 26,
      "componentType": 5126,
      "count": 3,
      "max": [
        0.8999999761581421
      ],
      "min": [
        0
      ],
      "type": "SCALAR"
    },
    {
      "bufferView": 27,
      "componentType": 5126,
      "count": 3,
      "max": [
        0.34289780259132385,
        0,
        0,
        0.939372718334198
      ],
      "min": [
        -0.34289780259132385,
        0,
        0,
        0.939372718334198
      ],
      "type": "VEC4"
    },
    {
      "bufferView": 28,
      "componentType": 5126,
      "count": 3,
      "max": [
        0.8999999761581421
      ],
      "min": [
        0
      ],
      "type": "SCALAR"
    },
    {
      "bufferView": 29,
      "componentType": 5126,
      "count": 3,
      "max": [
        0.3894183337688446,
        0,
        0,
        0.9210609793663025
      ],
      "min": [
        -0.3894183337688446,
        0,
        0,
        0.9210609793663025
      ],
      "type": "VEC4"
    },
    {
      "bufferView": 30,
      "componentType": 5126,
      "count": 3,
      "max": [
        0.8999999761581421
      ],
      "min": [
        0
      ],
      "type": "SCALAR"
    },
    {
      "bufferView": 31,
      "componentType": 5126,
      "count": 3,
      "max": [
        0.3894183337688446,
        0,
        0,
        0.9210609793663025
      ],
      "min": [
        -0.3894183337688446,
        0,
        0,
        0.9210609793663025
      ],
      "type": "VEC4"
    }
  ],
  "materials": [
    {
      "pbrMetallicRoughness": {
        "baseColorFactor": [
          0.26225065751888765,
          0.6866853124288864,
          1,
          1
        ],
        "metallicFactor": 0.2,
        "roughnessFactor": 0.42
      }
    },
    {
      "pbrMetallicRoughness": {
        "baseColorFactor": [
          0.8879231178794776,
          0.5711248294565854,
          0.3915724777393922,
          1
        ],
        "metallicFactor": 0.02,
        "roughnessFactor": 0.92
      }
    },
    {
      "pbrMetallicRoughness": {
        "baseColorFactor": [
          0.008568125615105716,
          0.031896033067374104,
          0.04970656597728775,
          1
        ],
        "metallicFactor": 0.08,
        "roughnessFactor": 0.72
      }
    }
  ],
  "meshes": [
    {
      "primitives": [
        {
          "mode": 4,
          "attributes": {
            "POSITION": 0,
            "NORMAL": 1,
            "TEXCOORD_0": 2
          },
          "indices": 3,
          "material": 0
        }
      ]
    },
    {
      "primitives": [
        {
          "mode": 4,
          "attributes": {
            "POSITION": 4,
            "NORMAL": 5,
            "TEXCOORD_0": 6
          },
          "indices": 7,
          "material": 1
        }
      ]
    },
    {
      "primitives": [
        {
          "mode": 4,
          "attributes": {
            "POSITION": 8,
            "NORMAL": 9,
            "TEXCOORD_0": 10
          },
          "indices": 11,
          "material": 2
        }
      ]
    },
    {
      "primitives": [
        {
          "mode": 4,
          "attributes": {
            "POSITION": 12,
            "NORMAL": 13,
            "TEXCOORD_0": 14
          },
          "indices": 15,
          "material": 2
        }
      ]
    }
  ],
  "animations": [
    {
      "name": "Idle",
      "samplers": [
        {
          "input": 16,
          "output": 17,
          "interpolation": "LINEAR"
        },
        {
          "input": 18,
          "output": 19,
          "interpolation": "LINEAR"
        },
        {
          "input": 20,
          "output": 21,
          "interpolation": "LINEAR"
        }
      ],
      "channels": [
        {
          "sampler": 0,
          "target": {
            "node": 0,
            "path": "translation"
          }
        },
        {
          "sampler": 1,
          "target": {
            "node": 3,
            "path": "rotation"
          }
        },
        {
          "sampler": 2,
          "target": {
            "node": 4,
            "path": "rotation"
          }
        }
      ]
    },
    {
      "name": "Walk",
      "samplers": [
        {
          "input": 22,
          "output": 23,
          "interpolation": "LINEAR"
        },
        {
          "input": 24,
          "output": 25,
          "interpolation": "LINEAR"
        },
        {
          "input": 26,
          "output": 27,
          "interpolation": "LINEAR"
        },
        {
          "input": 28,
          "output": 29,
          "interpolation": "LINEAR"
        },
        {
          "input": 30,
          "output": 31,
          "interpolation": "LINEAR"
        }
      ],
      "channels": [
        {
          "sampler": 0,
          "target": {
            "node": 0,
            "path": "translation"
          }
        },
        {
          "sampler": 1,
          "target": {
            "node": 3,
            "path": "rotation"
          }
        },
        {
          "sampler": 2,
          "target": {
            "node": 4,
            "path": "rotation"
          }
        },
        {
          "sampler": 3,
          "target": {
            "node": 5,
            "path": "rotation"
          }
        },
        {
          "sampler": 4,
          "target": {
            "node": 6,
            "path": "rotation"
          }
        }
      ]
    }
  ]
}